<?xml version="1.0" encoding="utf-8"?>
<!-- Generator: Adobe Illustrator 27.2.0, SVG Export Plug-In . SVG Version: 6.00 Build 0)  -->
<svg version="1.1" id="Layer_1" xmlns="http://www.w3.org/2000/svg" xmlns:xlink="http://www.w3.org/1999/xlink" x="0px" y="0px"
	 viewBox="0 0 100 100" style="enable-background:new 0 0 100 100;" xml:space="preserve">
<path d="M50,0C22.4,0,0,22.4,0,50c0,27.6,22.4,50,50,50c27.6,0,50-22.4,50-50C100,22.4,77.6,0,50,0z M43.9,52.7
	c0,7.8-4.2,14.3-13.2,14.3c-6.4,0-10.4-2.4-13.3-7.4l7-5.2c1.3,2.5,3.2,3.7,4.9,3.7c2.8,0,4.3-1.3,4.3-6.2V27.3h10.3V52.7z M69.3,67
	c-10,0-18.6-6.6-18.6-19.9c0-13.1,9-20.5,18.8-20.5c5.2,0,9.4,2.4,12.1,5.2l-5.4,6.6c-1.9-1.7-3.8-2.9-6.5-2.9
	c-4.6,0-8.5,4.2-8.5,11.3c0,7.3,3.4,11.4,8.4,11.4c3,0,5.4-1.6,7.1-3.4l5.4,6.5C78.8,65.1,74.3,67,69.3,67z"/>
</svg>
