<?xml version="1.0" encoding="utf-8"?>
<!-- Generator: Adobe Illustrator 27.2.0, SVG Export Plug-In . SVG Version: 6.00 Build 0)  -->
<svg version="1.1" id="Layer_1" xmlns="http://www.w3.org/2000/svg" xmlns:xlink="http://www.w3.org/1999/xlink" x="0px" y="0px"
	 viewBox="0 0 100 100" style="enable-background:new 0 0 100 100;" xml:space="preserve">
<style type="text/css">
	.st0{fill:#f3f3f3;}
</style>
<g>
	<path class="st0" d="M48.5,42.6c-2.3-0.5-4.4-1-5.1-2.6c-0.4-0.8-0.3-1.8,0.2-2.8c1.7-3.1,2.1-5.8,1.1-7.4
		c-0.7-1.2-2.1-1.4-2.9-1.4c-1.3,0-2.3,0.5-2.9,1.5c-1,1.6-0.5,4.3,1.1,7.4c0.6,1,0.6,2,0.3,2.8c-0.7,1.6-2.8,2.1-5,2.6
		c-1.4,0.3-1.6,0.5-1.6,2H50C50,43.1,49.8,42.9,48.5,42.6z"/>
	<path class="st0" d="M50,0C22.4,0,0,22.4,0,50c0,27.6,22.4,50,50,50c27.6,0,50-22.4,50-50C100,22.4,77.6,0,50,0z M77.1,66.2
		L60.8,82.5H22.9v-65h54.2V66.2z"/>
	<path class="st0" d="M58.1,63.5h16.2V20.2H25.6v59.6h32.5V63.5z M69,55.4H31v-2.7H69V55.4z M58.1,28.3H69V31H58.1V28.3z M58.1,36.5
		H69v2.7H58.1V36.5z M58.1,44.6H69v2.7H58.1V44.6z M34.6,40c4-0.9,3.3-1.1,3.1-1.5c-2.9-5.4-1.9-8.6-1.1-10c1.1-1.8,2.9-2.8,5.2-2.8
		c2.2,0,4.1,1,5.2,2.7c1.5,2.4,1.1,6-1,10.1c-0.3,0.5-0.5,0.7,3,1.5c3.7,0.8,3.7,3.3,3.7,5.2l0,2.1H31l0-2.1
		C31,43.2,31,40.8,34.6,40z M52.7,71.7H31V69h21.7V71.7z M52.7,63.5H31v-2.7h21.7V63.5z"/>
	<polygon class="st0" points="60.8,78.7 73.3,66.2 60.8,66.2 	"/>
</g>
</svg>
