<?xml version="1.0" encoding="utf-8"?>
<!-- Generator: Adobe Illustrator 27.2.0, SVG Export Plug-In . SVG Version: 6.00 Build 0)  -->
<svg version="1.1" id="Layer_1" xmlns="http://www.w3.org/2000/svg" xmlns:xlink="http://www.w3.org/1999/xlink" x="0px" y="0px"
	 viewBox="0 0 100 100" style="enable-background:new 0 0 100 100;" xml:space="preserve">
<style type="text/css">
	.st0{fill:#f3f3f3;}
</style>
<path class="st0" d="M50,0C22.4,0,0,22.4,0,50s22.4,50,50,50s50-22.4,50-50S77.6,0,50,0z M41.7,66.7h-8.3v-25h8.3V66.7z M37.5,38
	c-2.5,0-4.6-2.1-4.6-4.6c0-2.5,2-4.6,4.6-4.6s4.6,2.1,4.6,4.6C42.1,35.9,40,38,37.5,38z M70.8,66.7h-8.3V54.7c0-7.8-8.3-7.2-8.3,0
	v11.9h-8.3v-25h8.3v4.6c3.6-6.7,16.7-7.2,16.7,6.5V66.7z"/>
</svg>
